<?xml version="1.0" standalone="no"?>
<!DOCTYPE svg PUBLIC "-//W3C//DTD SVG 20010904//EN"
 "http://www.w3.org/TR/2001/REC-SVG-20010904/DTD/svg10.dtd">
<svg version="1.0" xmlns="http://www.w3.org/2000/svg" width="1024.000000pt" height="1024.000000pt" viewBox="0 0 1024.000000 1024.000000" preserveAspectRatio="xMidYMid meet">

<g transform="translate(0.000000,1024.000000) scale(0.100000,-0.100000)" fill="#000000" stroke="none">
<path d="M4790 9863 c-1205 -73 -2309 -560 -3167 -1396 -494 -482 -906 -1104
-1135 -1717 -152 -405 -240 -767 -294 -1205 -21 -179 -29 -647 -15 -865 69
-1007 431 -1926 1072 -2715 502 -619 1147 -1104 1904 -1432 466 -202 1047
-344 1565 -384 200 -15 717 -6 897 15 521 62 965 178 1411 367 537 229 1044
570 1494 1007 562 546 971 1195 1214 1927 178 539 255 1058 241 1640 -22 900
-272 1699 -785 2510 -85 134 -287 406 -388 523 -454 525 -974 931 -1569 1222
-708 347 -1427 515 -2180 508 -115 -1 -235 -3 -265 -5z m578 -367 c177 -91
367 -277 481 -470 174 -296 258 -698 231 -1108 -40 -616 -295 -1108 -784
-1516 l-100 -82 2 -58 c3 -66 20 -339 28 -428 l5 -61 97 -6 c99 -6 233 -42
322 -87 22 -11 40 -17 41 -13 3 36 5 132 7 406 2 259 4 317 16 317 22 0 255
-121 331 -172 450 -302 734 -849 712 -1373 -8 -182 -40 -336 -105 -500 -133
-336 -384 -627 -687 -798 -95 -53 -203 -103 -242 -111 l-28 -7 3 296 c1 162 0
295 -4 295 -3 0 -48 -16 -99 -35 -51 -19 -136 -42 -189 -52 l-96 -17 0 -45 c0
-25 5 -109 10 -186 13 -189 34 -543 71 -1195 36 -633 36 -851 0 -985 -133
-500 -664 -724 -1159 -490 -115 55 -204 120 -298 217 -88 91 -124 145 -179
261 -58 126 -79 218 -79 347 0 122 19 204 70 300 86 164 246 292 413 330 136
32 309 6 431 -63 124 -71 238 -224 270 -367 81 -351 -191 -678 -547 -657 -46
3 -80 1 -77 -4 23 -37 188 -123 277 -144 177 -42 340 5 467 134 74 75 119 158
145 267 23 95 18 282 -25 1002 l-34 562 -71 0 c-102 0 -255 25 -378 60 -266
77 -501 211 -697 397 -434 413 -634 1020 -531 1613 55 316 188 604 414 900
106 138 451 481 649 645 126 104 158 135 158 155 0 14 -14 243 -30 509 -32
523 -36 669 -19 819 54 490 238 814 651 1143 55 44 101 79 104 79 2 0 26 -11
52 -24z m1007 -522 c410 -120 866 -332 1198 -556 317 -213 688 -547 927 -833
393 -469 668 -1007 830 -1628 86 -326 124 -637 124 -992 -1 -567 -97 -1084
-295 -1590 -371 -946 -1111 -1757 -2059 -2257 -410 -217 -935 -379 -1429 -442
-161 -21 -501 -39 -568 -31 l-53 6 0 58 0 57 248 12 c136 7 299 19 362 28 452
60 984 224 1222 377 59 38 78 68 58 92 -22 26 -75 16 -242 -44 -533 -192 -920
-276 -1333 -287 l-190 -6 34 22 c26 17 59 23 155 31 604 48 1138 199 1645 465
722 380 1385 1068 1741 1807 227 470 365 990 400 1503 6 82 13 194 17 249 9
127 11 113 26 -189 12 -224 15 -250 32 -262 51 -37 71 20 86 238 48 697 -160
1526 -548 2181 -179 303 -343 516 -587 765 -363 370 -706 620 -1151 837 -275
134 -575 247 -775 292 l-83 18 -28 63 c-16 35 -29 67 -29 72 0 10 142 -20 265
-56z m2 -335 c427 -137 886 -382 1223 -653 172 -139 402 -362 525 -511 129
-155 283 -398 389 -615 52 -106 45 -100 -51 45 -284 426 -728 880 -1133 1157
-187 128 -455 274 -676 369 -111 48 -348 129 -375 129 -13 0 -22 15 -33 54
-19 63 -19 66 -7 66 5 0 67 -18 138 -41z m-3975 -167 c-27 -23 -31 -30 -20
-42 11 -12 11 -12 -4 -1 -18 13 -38 8 -38 -10 0 -6 4 -7 10 -4 5 3 17 2 26 -3
14 -8 14 -10 0 -21 -11 -9 -16 -10 -16 -2 0 14 -37 14 -46 0 -3 -6 -1 -16 6
-22 10 -10 12 -8 6 8 -6 19 -5 19 8 1 8 -10 19 -15 25 -11 16 10 13 -14 -4
-31 -11 -12 -15 -12 -15 -3 0 9 -5 8 -17 -4 -14 -14 -15 -19 -4 -29 10 -11 11
-10 6 5 -4 10 -2 17 4 17 6 0 12 -10 12 -22 1 -20 2 -20 6 -4 4 16 49 66 59
66 2 0 1 -7 -2 -15 -4 -8 -1 -21 5 -29 6 -7 8 -16 4 -19 -12 -12 -23 -7 -23
11 -1 16 -1 16 -11 -1 -13 -22 -9 -28 25 -31 26 -3 31 13 13 41 -9 14 42 7 58
-8 13 -13 27 -11 19 4 -6 10 -4 10 7 0 10 -10 10 -16 2 -24 -9 -9 -18 -8 -36
4 -24 15 -24 15 -24 -9 0 -13 4 -24 9 -24 5 0 6 5 3 10 -3 6 -2 10 4 10 30 0
11 -26 -78 -104 -184 -161 -438 -436 -593 -641 -295 -392 -545 -895 -681
-1370 -19 -66 -38 -135 -42 -152 -3 -18 -11 -35 -16 -38 -13 -9 -11 19 2 32 6
6 8 16 5 22 -11 17 -36 13 -36 -6 0 -15 2 -16 10 -3 5 8 12 12 15 8 4 -3 0
-15 -7 -27 -10 -17 -10 -25 0 -41 9 -15 10 -25 2 -38 -10 -15 -11 -14 -7 5 3
13 -1 24 -9 27 -8 3 -14 13 -14 22 0 16 -2 16 -20 -1 -11 -10 -20 -13 -20 -7
0 7 -8 12 -17 12 -15 0 -14 -2 4 -15 12 -8 29 -12 39 -8 12 4 15 3 10 -5 -4
-7 -2 -12 5 -12 7 0 9 -3 6 -7 -4 -3 0 -17 8 -30 9 -13 11 -23 5 -23 -5 0 -10
6 -10 13 0 9 -2 9 -9 -1 -7 -11 -11 -11 -22 1 -8 7 -21 11 -29 9 -11 -4 -11
-2 2 11 21 21 28 21 28 2 0 -8 5 -15 10 -15 6 0 10 4 10 9 0 14 -23 29 -55 37
-17 4 -33 12 -37 18 -4 6 -11 7 -15 2 -4 -5 -2 -11 5 -13 21 -8 13 -25 -8 -18
-12 4 -20 2 -20 -5 0 -7 -8 -10 -20 -7 -25 6 -26 -8 -3 -22 10 -5 14 -13 10
-17 -5 -5 -12 -2 -16 5 -5 7 -14 11 -19 7 -7 -4 -10 4 -9 20 2 21 -18 46 -40
49 -12 2 95 401 145 545 96 275 289 653 475 930 71 105 216 298 305 405 172
205 479 496 653 618 68 48 96 54 41 9z m65 -107 c-7 -13 -14 -20 -15 -14 -2 5
2 16 8 24 18 21 20 18 7 -10z m53 -31 c0 -8 -4 -12 -10 -9 -5 3 -10 10 -10 16
0 5 5 9 10 9 6 0 10 -7 10 -16z m3975 -71 c435 -162 847 -432 1201 -787 568
-570 906 -1245 1024 -2046 11 -74 25 -245 30 -380 6 -140 16 -255 22 -267 15
-29 48 -29 69 0 31 42 85 235 110 392 l13 80 7 -50 c13 -90 9 -447 -6 -590
-60 -587 -248 -1140 -553 -1630 -242 -388 -608 -785 -988 -1073 -265 -200
-640 -404 -964 -525 -254 -95 -842 -220 -965 -205 -16 2 17 9 75 16 282 34
608 132 748 226 39 25 47 36 47 61 0 27 -4 30 -33 33 -18 2 -90 -12 -160 -32
-206 -57 -482 -116 -542 -116 l-27 0 18 53 18 52 148 26 c488 87 945 270 1360
545 442 293 921 806 1047 1124 26 64 36 102 27 98 -4 -2 -54 -59 -111 -128
-315 -381 -565 -623 -858 -833 -393 -281 -807 -475 -1248 -585 -145 -37 -313
-68 -317 -60 -1 2 -1 44 1 95 l3 92 37 7 c208 35 467 120 655 216 122 62 329
209 315 223 -3 3 -67 -20 -144 -51 -274 -109 -554 -196 -746 -229 -125 -22
-118 -25 -118 49 0 72 -6 67 95 86 108 22 285 80 368 121 91 46 212 131 228
161 12 21 -3 48 -27 48 -7 0 -87 -25 -176 -55 -169 -58 -360 -110 -441 -121
l-47 -7 0 44 0 44 66 13 c99 19 287 76 421 127 572 221 1095 694 1387 1255
229 441 339 925 315 1401 -9 189 -20 267 -59 434 -191 803 -773 1473 -1554
1789 -30 12 -37 20 -31 33 3 10 9 31 12 46 3 16 11 31 18 33 34 14 379 -151
532 -253 269 -181 523 -416 701 -652 245 -324 402 -672 482 -1071 25 -122 50
-344 50 -441 0 -14 7 -34 15 -45 15 -19 15 -19 35 4 25 31 55 130 77 262 16
99 18 103 25 65 16 -80 21 -449 9 -581 -38 -388 -129 -708 -301 -1059 -101
-206 -179 -332 -312 -507 -119 -157 -366 -409 -551 -563 -145 -120 -177 -155
-177 -193 0 -56 66 -38 208 57 465 311 887 855 1108 1426 117 300 205 746 221
1113 8 182 21 164 29 -40 14 -332 -40 -689 -161 -1072 -19 -60 -35 -126 -35
-147 0 -33 4 -40 26 -45 31 -8 45 6 97 101 98 176 190 457 244 745 22 121 26
612 5 755 -107 734 -381 1345 -850 1894 -186 217 -397 400 -672 580 -212 140
-502 280 -697 338 -66 19 -73 29 -73 105 0 29 1 30 38 23 20 -4 91 -27 157
-52z m-3676 -16 c0 -9 -2 -8 -6 1 -2 6 -10 9 -15 6 -7 -4 -8 -2 -4 5 9 13 26
5 25 -12z m75 -8 c-8 -14 -21 -11 -21 5 0 8 6 12 14 9 7 -3 10 -9 7 -14z m-94
-10 c0 -5 5 -7 12 -3 7 4 2 -9 -10 -29 -22 -39 -17 -52 8 -18 7 11 18 17 23
14 6 -4 8 3 5 15 -4 15 -2 19 8 15 21 -8 17 -19 -17 -47 -36 -30 -42 -31 -63
-10 -9 8 -16 12 -16 7 0 -4 -10 3 -21 17 -11 14 -19 18 -17 10 1 -8 -4 -26
-11 -40 l-12 -25 20 25 c11 14 21 19 21 13 0 -7 7 -13 15 -13 20 0 19 -19 0
-26 -9 -4 -21 -16 -27 -28 -9 -17 -5 -16 17 7 15 15 33 27 39 27 6 0 -32 -44
-85 -97 -131 -134 -192 -210 -178 -219 8 -5 9 -3 4 6 -6 10 -2 11 19 6 15 -4
26 -2 26 4 0 5 -5 10 -12 10 -6 0 -9 2 -6 5 10 11 39 -8 34 -22 -3 -8 -2 -12
3 -8 5 3 14 -7 19 -22 7 -18 11 -22 11 -10 1 17 -25 66 -41 78 -5 3 4 16 18
28 16 14 25 18 21 9 -3 -8 3 -22 12 -30 11 -10 17 -27 16 -47 -2 -32 -2 -32
18 -13 11 11 20 32 20 46 0 14 3 26 8 26 8 0 12 -15 7 -23 -9 -12 25 -33 49
-31 42 2 43 3 37 19 -4 8 -1 15 6 15 6 0 9 -4 6 -9 -3 -5 2 -15 11 -22 15 -12
16 -12 10 4 -4 11 -3 16 3 12 6 -3 15 -3 21 1 7 4 8 9 1 13 -7 4 -5 13 5 26
15 19 15 19 8 -3 -6 -22 -5 -23 14 -13 12 7 21 17 21 23 0 6 3 8 7 4 4 -3 -20
-33 -53 -65 -136 -133 -294 -313 -294 -336 0 -5 5 -3 10 5 8 12 10 12 10 -5 0
-17 2 -17 10 -5 5 9 6 16 0 18 -5 2 -6 10 -3 18 3 7 9 11 14 8 5 -3 9 -1 9 5
0 6 7 8 16 4 13 -5 15 -2 9 18 -7 21 -6 22 9 10 10 -9 16 -10 16 -2 0 17 18
13 57 -14 41 -28 50 -26 33 4 -9 17 -8 22 5 27 8 4 22 1 30 -6 12 -10 15 -10
15 0 0 10 3 10 15 0 13 -11 14 -10 9 4 -4 10 -1 16 7 17 8 1 21 2 29 3 8 0 14
9 12 18 -1 9 2 19 8 23 6 3 7 0 4 -9 -10 -25 1 -20 88 48 139 107 430 286 464
286 4 0 -44 -35 -109 -79 -145 -98 -257 -192 -251 -210 3 -8 -1 -11 -10 -8 -8
3 -20 -1 -26 -9 -10 -11 -7 -21 14 -49 31 -40 30 -39 48 -22 53 51 349 219
518 293 111 49 293 114 319 114 9 0 -18 -15 -60 -34 -244 -106 -569 -314 -733
-470 -53 -50 -57 -56 -35 -56 22 0 21 -3 -19 -40 -23 -22 -42 -44 -42 -48 0
-5 -11 -15 -25 -22 -13 -7 -27 -20 -30 -29 -3 -9 -15 -27 -27 -41 -53 -60 -61
-70 -50 -70 6 0 28 17 48 38 23 23 38 32 41 25 3 -7 11 -13 18 -13 8 0 21 -10
29 -22 9 -13 16 -17 16 -9 0 11 3 11 15 1 13 -11 13 -15 3 -21 -9 -6 -9 -9 -1
-9 6 0 21 14 33 30 12 17 26 27 33 23 8 -5 8 -8 -1 -11 -7 -2 -17 -12 -22 -23
-8 -15 -7 -17 5 -13 8 3 13 10 10 14 -3 4 11 10 31 12 19 2 38 0 40 -4 3 -5
10 -6 15 -2 5 3 7 10 4 15 -3 5 0 6 7 4 8 -3 23 4 35 15 12 11 26 20 30 20 4
0 -27 -34 -70 -75 -312 -300 -501 -546 -665 -865 -95 -182 -141 -296 -211
-517 -40 -125 -56 -163 -69 -164 -15 0 -15 -1 -1 -7 12 -5 14 -13 8 -29 -5
-13 -14 -23 -21 -23 -9 0 -9 -3 2 -10 10 -7 11 -10 2 -10 -7 0 -15 7 -18 15
-4 8 -10 12 -15 9 -5 -3 -7 -11 -3 -17 3 -7 -2 -3 -10 7 -21 26 -65 31 -59 6
3 -10 0 -21 -5 -24 -6 -3 -9 -14 -7 -24 1 -9 0 -11 -2 -4 -3 7 -10 9 -16 5 -7
-3 -3 3 7 15 18 21 18 23 1 42 -10 11 -13 20 -7 20 6 0 11 8 10 18 -1 38 14
152 32 237 33 162 33 155 11 110 -10 -23 -31 -80 -47 -128 -19 -60 -32 -86
-41 -83 -7 3 -13 1 -13 -4 0 -6 4 -10 8 -10 4 0 8 -9 9 -21 2 -17 -1 -18 -13
-9 -16 14 -19 -1 -3 -17 7 -7 6 -14 -4 -24 -7 -8 -12 -20 -9 -27 2 -6 -3 -12
-12 -12 -9 0 -16 -5 -16 -11 0 -5 4 -8 9 -4 5 3 13 0 17 -6 5 -8 3 -9 -6 -4
-10 6 -12 3 -8 -12 3 -12 0 -20 -8 -20 -8 0 -14 11 -14 25 0 17 -4 23 -15 18
-8 -3 -15 -1 -15 4 0 6 6 10 14 10 8 0 17 4 21 9 3 6 -4 8 -15 6 -14 -3 -20 1
-20 16 0 10 5 19 10 19 6 0 10 -6 10 -12 0 -9 4 -8 10 2 15 23 12 30 -15 30
-14 0 -24 -3 -23 -7 2 -12 -13 -43 -22 -43 -4 0 -5 11 -3 24 3 13 1 26 -4 29
-5 3 -10 -12 -10 -34 -2 -28 2 -39 13 -39 7 0 14 -8 14 -17 0 -15 -2 -15 -9
-4 -5 8 -25 14 -44 14 -28 0 -33 3 -29 19 4 18 5 18 19 1 13 -17 14 -16 7 6
-4 16 -3 21 5 17 14 -9 14 24 0 44 -8 12 -9 11 -4 -6 4 -15 0 -24 -10 -28 -20
-7 -16 18 27 189 72 286 249 664 437 935 73 105 244 322 285 359 36 33 36 82
0 110 -47 37 -72 28 -147 -51 -306 -324 -547 -746 -707 -1236 -25 -78 -50
-139 -55 -135 -4 5 -5 2 -1 -5 4 -7 4 -21 0 -30 -4 -9 -7 -26 -8 -37 -1 -13
-8 -19 -18 -19 -17 2 -22 -7 -19 -33 2 -16 -15 -17 -25 -2 -3 6 -1 15 6 19 8
5 9 10 2 14 -18 11 -1 38 19 33 22 -6 26 8 5 16 -21 8 -49 -29 -49 -63 0 -23
-3 -27 -14 -19 -7 6 -11 15 -8 18 2 4 -2 8 -9 8 -9 0 -12 -7 -8 -16 5 -14 4
-14 -12 -1 -23 18 -60 25 -50 8 5 -7 3 -8 -6 -3 -10 6 -10 11 3 20 10 7 17 17
17 24 0 15 -24 10 -30 -7 -4 -10 -11 -7 -25 10 -12 14 -14 18 -4 10 14 -10 17
-9 22 7 3 14 1 18 -9 14 -9 -3 -14 2 -14 17 0 11 4 19 9 16 4 -3 6 5 4 19 -5
25 32 214 72 368 13 50 22 93 21 95 -11 11 -146 -353 -172 -460 -4 -18 -13
-28 -24 -28 -11 0 -22 -5 -26 -12 -5 -8 0 -9 14 -6 17 5 22 2 22 -14 0 -17 -3
-18 -14 -9 -12 10 -18 6 -32 -18 -10 -17 -25 -31 -33 -31 -11 0 -10 3 4 13 14
11 15 16 5 22 -8 5 -18 2 -26 -9 -8 -11 -14 -13 -19 -7 -3 6 -1 11 6 11 6 0 9
8 6 20 -6 24 1 25 29 5 21 -14 34 -11 34 7 0 5 -6 8 -12 7 -18 -3 -68 19 -68
30 0 5 -9 11 -20 14 -11 3 -20 13 -21 24 0 16 -1 16 -9 -2 -7 -15 -9 -16 -9
-4 -1 22 -31 48 -31 27 0 -8 5 -19 12 -26 17 -17 6 -23 -15 -7 -18 13 -18 18
9 132 50 217 131 445 247 694 240 515 642 1041 1036 1355 13 10 38 30 55 44
58 47 96 71 96 60 0 -5 5 -10 10 -10 6 0 10 9 10 19 0 25 31 37 42 16 11 -19
44 -20 51 -1 4 11 1 13 -11 9 -15 -6 -15 -5 -3 10 15 19 31 22 31 6z m3775
-289 c411 -174 860 -512 1126 -845 103 -130 309 -448 297 -460 -2 -2 -36 40
-75 93 -164 224 -465 543 -653 693 -284 225 -592 404 -880 509 l-75 28 -3 40
-3 41 83 -28 c46 -16 128 -47 183 -71z m-3920 0 c-11 -5 -27 -9 -35 -9 -13 -1
-13 0 0 9 8 5 24 9 35 9 l20 0 -20 -9z m50 -20 c3 -6 -1 -7 -9 -4 -18 7 -21
14 -7 14 6 0 13 -4 16 -10z m49 -11 c-2 -4 2 -10 8 -12 8 -4 7 -6 -3 -6 -9 -1
-19 5 -22 12 -3 8 1 14 9 14 7 0 11 -4 8 -8z m76 -3 c0 -2 -7 -7 -16 -10 -8
-3 -12 -2 -9 4 6 10 25 14 25 6z m-110 -10 c0 -3 -4 -8 -10 -11 -5 -3 -10 -1
-10 4 0 6 5 11 10 11 6 0 10 -2 10 -4z m-64 -33 c-10 -10 -19 5 -10 18 6 11 8
11 12 0 2 -7 1 -15 -2 -18z m97 3 c4 -9 -3 -16 -19 -19 -16 -3 -24 0 -24 10 0
8 4 12 9 8 5 -3 12 -1 16 5 8 13 12 13 18 -4z m3618 -152 c80 -33 262 -125
256 -130 -2 -2 -21 3 -43 12 -61 26 -264 94 -280 94 -8 0 -14 10 -14 25 0 31
2 31 81 -1z m-3626 -76 c4 4 6 1 3 -7 -7 -23 -25 -24 -31 -1 -4 16 -2 19 7 11
7 -6 16 -7 21 -3z m325 0 c0 6 7 9 15 6 11 -5 12 -9 2 -19 -13 -14 -47 -2 -47
17 0 7 5 6 15 -2 10 -8 15 -9 15 -2z m-403 -5 c-8 -7 11 -33 25 -33 5 0 6 5 2
11 -4 7 -1 10 7 7 20 -7 17 -31 -3 -34 -20 -3 -53 31 -43 45 3 6 9 11 12 11 4
0 3 -3 0 -7z m467 -158 c-4 -8 -11 -15 -16 -15 -6 0 -5 6 2 15 7 8 14 15 16
15 2 0 1 -7 -2 -15z m-124 -190 c0 -8 -2 -15 -4 -15 -2 0 -6 7 -10 15 -3 8 -1
15 4 15 6 0 10 -7 10 -15z m34 6 c3 -5 -1 -14 -9 -21 -11 -9 -14 -8 -12 9 1
22 12 28 21 12z m45 -54 c1 -16 -3 -26 -9 -22 -6 3 -7 17 -4 30 3 12 1 26 -5
30 -6 3 -8 11 -4 18 8 14 21 -18 22 -56z m58 41 c-3 -8 -6 -5 -6 6 -1 11 2 17
5 13 3 -3 4 -12 1 -19z m18 -36 c-3 -3 -11 0 -18 7 -9 10 -8 11 6 5 10 -3 15
-9 12 -12z m3160 -65 c657 -320 1140 -928 1301 -1638 50 -221 58 -309 59 -579
0 -266 -6 -319 -56 -530 -80 -336 -256 -696 -479 -982 -78 -100 -266 -290
-372 -376 -305 -247 -666 -420 -1060 -506 l-28 -6 0 164 0 164 88 27 c860 264
1473 1080 1472 1959 -1 486 -152 947 -433 1321 -72 95 -254 284 -352 365 -99
81 -242 175 -373 245 -61 33 -112 63 -112 66 0 13 65 109 74 109 18 0 222
-113 316 -175 608 -405 947 -1004 1010 -1785 16 -193 32 -231 86 -196 55 37
90 223 81 431 -16 337 -149 710 -370 1040 -221 330 -571 639 -922 815 -61 30
-112 56 -113 57 -11 5 24 73 38 73 8 0 74 -29 145 -63z m-2650 33 c3 -6 -1 -7
-9 -4 -18 7 -21 14 -7 14 6 0 13 -4 16 -10z m-102 -16 c-5 -14 -3 -15 16 -4
27 14 27 14 35 -27 5 -20 3 -34 -4 -38 -9 -5 -10 -1 -5 14 4 13 2 21 -5 21 -7
0 -9 7 -6 16 6 14 4 15 -9 4 -9 -7 -12 -16 -7 -19 24 -15 -1 -57 -91 -151
-140 -147 -160 -175 -142 -190 12 -10 15 -10 15 3 0 18 39 67 40 50 0 -6 -4
-15 -10 -18 -5 -3 -10 -12 -10 -18 0 -7 8 0 18 16 9 15 20 27 24 27 4 0 6 6 4
13 -1 6 -1 9 1 5 10 -17 25 -6 20 14 -5 19 -4 20 9 6 14 -14 14 -18 -2 -36
-10 -12 -22 -18 -27 -15 -6 3 -7 1 -3 -5 4 -7 14 -12 22 -12 8 0 14 -6 14 -12
0 -7 7 -3 15 8 8 12 13 31 10 43 -2 11 1 24 7 27 7 4 8 2 4 -4 -5 -8 1 -11 17
-10 16 1 23 7 20 15 -3 8 2 13 12 13 12 0 15 -5 11 -16 -3 -9 -6 -19 -6 -23 0
-5 -11 -6 -25 -3 -21 4 -25 1 -25 -21 0 -14 -3 -34 -6 -44 -5 -17 -5 -17 6 0
6 9 18 17 25 17 8 0 15 5 15 11 0 5 -4 8 -9 4 -5 -3 -12 -1 -16 4 -3 6 7 9 25
8 27 -2 31 -5 27 -24 -2 -13 0 -23 4 -23 5 0 9 6 9 14 0 8 6 16 12 18 9 3 7
10 -6 24 -18 17 -18 19 -3 22 10 2 15 7 12 12 -3 4 2 11 11 14 15 6 15 4 1
-17 -14 -22 -14 -24 5 -36 19 -12 19 -12 -4 -32 -20 -18 -21 -20 -3 -14 11 4
25 8 32 9 7 1 16 6 20 11 4 4 3 5 -3 2 -7 -4 -14 -1 -17 6 -7 18 10 57 25 56
9 0 9 -2 1 -5 -8 -4 -9 -14 -2 -36 4 -17 6 -35 3 -39 -3 -5 -1 -15 3 -23 7
-12 12 -11 31 5 14 11 20 23 16 30 -5 9 -10 5 -15 -9 -8 -22 -29 -31 -29 -12
0 6 5 10 11 10 6 0 9 6 6 13 -3 8 3 14 14 14 10 1 19 -2 19 -8 0 -5 4 -9 10
-9 5 0 7 8 4 18 -5 14 -4 14 4 2 9 -12 13 -12 29 1 28 25 153 110 153 104 0
-2 -37 -32 -82 -67 -232 -176 -482 -465 -633 -732 -120 -214 -191 -392 -274
-694 -8 -27 -16 -40 -23 -36 -8 5 -9 1 -5 -10 4 -11 3 -15 -4 -11 -6 4 -10 1
-8 -6 1 -8 1 -21 0 -29 -1 -13 -3 -13 -10 0 -6 8 -7 27 -4 42 3 17 1 28 -5 28
-6 0 -9 7 -5 16 5 13 8 13 15 2 8 -10 9 -10 5 2 -2 8 -10 14 -17 12 -7 -1 -19
3 -28 10 -16 14 -16 13 17 -50 14 -26 5 -45 -9 -22 -7 12 -12 12 -28 -3 -23
-21 -29 -21 -48 -3 -7 8 -19 16 -26 19 -7 2 -9 8 -5 13 4 5 12 2 17 -6 8 -13
10 -13 10 1 0 20 41 33 52 16 5 -8 8 -6 8 6 0 15 -7 18 -37 16 -71 -4 -72 -3
-66 39 4 34 55 293 68 352 11 48 -46 -96 -90 -225 -24 -71 -49 -131 -55 -133
-9 -3 -9 1 -1 16 14 26 14 32 0 32 -5 0 -7 -4 -4 -10 3 -5 1 -10 -5 -10 -6 0
-8 -4 -5 -10 3 -5 0 -10 -7 -10 -8 0 -6 -5 5 -11 9 -5 17 -17 17 -26 0 -14 -2
-14 -16 3 -16 19 -16 13 1 -28 3 -7 -6 -18 -20 -25 -14 -6 -25 -8 -25 -3 0 4
7 10 15 14 24 9 17 26 -10 26 -17 0 -25 6 -25 17 0 13 3 14 12 5 16 -16 28
-15 28 3 0 8 -9 15 -21 15 -11 0 -17 5 -14 10 4 6 11 8 16 5 5 -4 9 -1 9 5 0
7 -8 9 -22 4 -13 -4 -28 -7 -35 -7 -8 0 -6 -8 4 -23 8 -13 13 -29 10 -36 -3
-8 -6 -6 -6 5 -1 28 -21 9 -22 -21 0 -23 -2 -21 -13 13 -7 24 -15 35 -19 28
-4 -6 -4 -19 -1 -30 3 -10 2 -14 -3 -8 -4 6 -11 12 -15 15 -3 3 0 14 8 24 11
15 16 17 28 7 8 -7 17 -8 20 -3 3 5 -6 15 -19 22 -13 7 -22 16 -20 20 2 4 -2
15 -9 25 -12 16 -12 15 -8 -13 3 -20 -1 -37 -12 -47 -15 -15 -16 -14 -14 9 1
13 6 22 10 20 11 -7 10 4 -3 27 -5 11 -14 17 -18 15 -24 -15 60 277 125 438
147 359 351 667 601 906 118 113 274 226 295 214 7 -4 10 -4 6 1 -13 14 25 35
40 23 9 -8 11 -7 6 6 -4 10 -1 16 9 16 8 0 20 7 27 15 16 19 21 19 13 -1z m79
-38 c-3 -5 -9 -1 -12 10 -4 10 -5 23 -2 28 3 5 9 1 12 -10 4 -10 5 -23 2 -28z
m-2847 -1225 c-3 -6 -11 -8 -17 -5 -6 4 -5 9 3 15 16 10 23 4 14 -10z m138 -8
c-9 -3 -10 -10 -3 -24 6 -11 7 -19 1 -19 -5 0 -12 8 -16 18 -6 16 -7 16 -20
-1 -10 -15 -14 -15 -18 -3 -4 10 3 18 21 25 27 9 58 14 35 4z m302 -73 c25
-13 33 -30 16 -30 -5 0 -12 7 -15 16 -3 8 -10 12 -16 9 -5 -3 -10 -1 -10 5 0
6 -4 9 -9 6 -5 -4 -8 2 -6 11 5 28 7 29 12 12 2 -9 15 -22 28 -29z m-415 18
c0 -4 -4 -8 -9 -8 -6 0 -12 4 -15 8 -3 5 1 9 9 9 8 0 15 -4 15 -9z m473 -2
c11 -8 14 -17 8 -20 -5 -4 -13 -1 -16 5 -4 5 -13 8 -21 5 -15 -6 -27 7 -17 18
10 10 26 7 46 -8z m-339 -11 c-5 -12 -10 -13 -20 -4 -19 15 -18 19 6 19 13 0
18 -5 14 -15z m361 -35 c3 -5 1 -10 -4 -10 -6 0 -11 5 -11 10 0 6 2 10 4 10 3
0 8 -4 11 -10z m-73 -39 c-6 -14 -7 -14 -10 2 -2 9 -8 17 -13 17 -5 0 -9 5 -9
10 0 6 7 6 19 -2 12 -7 17 -18 13 -27z m178 3 c0 -8 -4 -14 -9 -14 -6 0 -9 9
-8 19 1 22 17 18 17 -5z m304 -40 c3 -8 2 -12 -4 -9 -6 3 -10 10 -10 16 0 14
7 11 14 -7z m-156 -35 c-3 -8 -7 -3 -11 10 -4 17 -3 21 5 13 5 -5 8 -16 6 -23z
m42 -6 c0 -8 5 -11 12 -7 7 4 8 3 4 -4 -4 -6 -13 -9 -21 -6 -8 4 -12 10 -9 15
3 6 0 18 -8 27 -12 15 -11 16 5 3 9 -7 17 -20 17 -28z m35 6 c11 -16 1 -19
-13 -3 -7 8 -8 14 -3 14 5 0 13 -5 16 -11z m65 1 c0 -5 -4 -10 -10 -10 -5 0
-10 5 -10 10 0 6 5 10 10 10 6 0 10 -4 10 -10z m210 -101 c0 -6 -4 -7 -10 -4
-5 3 -10 11 -10 16 0 6 5 7 10 4 6 -3 10 -11 10 -16z m40 -11 c0 -5 -7 -3 -15
6 -8 8 -15 18 -15 22 0 3 7 1 15 -6 8 -7 15 -17 15 -22z m32 0 c-7 -7 -12 -8
-12 -2 0 14 12 26 19 19 2 -3 -1 -11 -7 -17z m209 -35 c12 -16 12 -17 -2 -6
-9 7 -19 10 -22 6 -4 -3 -7 -1 -7 5 0 17 16 15 31 -5z m24 -23 c-3 -5 -12 -10
-18 -10 -7 0 -6 4 3 10 19 12 23 12 15 0z m206 -23 c-10 -9 -11 -8 -5 6 3 10
9 15 12 12 3 -3 0 -11 -7 -18z m299 -87 c0 -5 -5 -10 -11 -10 -5 0 -7 5 -4 10
3 6 8 10 11 10 2 0 4 -4 4 -10z m24 -35 c-4 -8 -7 -15 -9 -15 -2 0 -5 7 -9 15
-3 9 0 15 9 15 9 0 12 -6 9 -15z m82 0 c-2 -16 -26 -44 -26 -31 0 9 19 46 24
46 3 0 3 -7 2 -15z m48 -43 c3 -5 -1 -9 -9 -9 -8 0 -12 4 -9 9 3 4 7 8 9 8 2
0 6 -4 9 -8z"></path>
<path d="M5282 8683 c-311 -308 -370 -380 -411 -506 -44 -134 -45 -178 -16
-601 15 -215 29 -393 31 -395 5 -6 377 334 454 416 200 213 333 457 385 701
22 106 20 280 -5 378 -21 85 -97 249 -128 277 -18 17 -29 8 -310 -270z"></path>
<path d="M4885 6057 c-45 -31 -212 -167 -375 -303 -369 -310 -542 -555 -621
-884 -17 -70 -17 -286 0 -365 78 -374 345 -696 704 -850 109 -47 225 -80 317
-90 30 -3 72 -8 94 -11 l39 -5 -7 103 c-3 57 -9 144 -12 194 l-6 91 -52 13
c-341 86 -588 341 -672 695 -21 87 -23 277 -5 360 52 236 203 462 394 588 51
34 186 102 241 121 17 6 18 15 11 149 -4 78 -10 159 -14 179 l-6 37 -30 -22z"></path>
<path d="M5273 5166 l6 -123 -47 24 c-65 34 -147 28 -207 -15 l-42 -30 -7 72
c-3 39 -9 92 -12 118 l-6 47 -58 -39 c-255 -173 -285 -524 -61 -733 41 -38
136 -97 156 -97 3 0 3 50 -1 111 l-7 112 45 -27 c69 -40 133 -44 201 -13 l54
25 7 -101 c4 -56 9 -103 11 -105 2 -2 34 11 72 30 176 87 286 297 253 486 -30
175 -163 326 -324 370 l-39 11 6 -123z"></path>
<path d="M6119 5017 c-21 -14 -41 -41 -53 -69 -17 -41 -18 -53 -7 -88 35 -116
151 -149 239 -67 54 50 63 97 33 163 -36 80 -140 110 -212 61z"></path>
<path d="M2257 8326 c-4 -10 0 -14 14 -13 10 1 18 6 16 11 -5 16 -24 18 -30 2z"></path>
<path d="M2301 8264 c0 -11 3 -14 6 -6 3 7 2 16 -1 19 -3 4 -6 -2 -5 -13z"></path>
<path d="M2370 8249 c0 -4 7 -9 15 -13 8 -3 15 -1 15 5 0 6 6 7 13 3 6 -4 9
-3 4 1 -9 11 -47 14 -47 4z"></path>
<path d="M2316 8225 c-9 -26 -7 -32 5 -12 6 10 9 21 6 23 -2 3 -7 -2 -11 -11z"></path>
<path d="M850 6081 c0 -6 4 -13 10 -16 6 -3 7 1 4 9 -7 18 -14 21 -14 7z"></path>
<path d="M986 6061 c-3 -5 1 -14 8 -20 12 -10 13 -8 9 8 -6 23 -9 25 -17 12z"></path>
<path d="M816 6044 c-9 -24 -2 -26 12 -4 7 11 8 20 3 20 -5 0 -12 -7 -15 -16z"></path>
<path d="M950 6050 c0 -5 5 -10 10 -10 6 0 10 5 10 10 0 6 -4 10 -10 10 -5 0
-10 -4 -10 -10z"></path>
<path d="M915 6034 c-15 -34 -15 -51 0 -51 18 0 20 13 4 23 -8 5 -8 9 1 14 7
4 10 14 8 21 -3 9 -7 7 -13 -7z"></path>
<path d="M870 6025 c0 -8 4 -15 10 -15 5 0 7 7 4 15 -4 8 -8 15 -10 15 -2 0
-4 -7 -4 -15z"></path>
<path d="M970 6018 c0 -9 -6 -19 -12 -21 -8 -3 -7 -6 4 -6 22 -1 29 11 17 29
-7 13 -9 12 -9 -2z"></path>
<path d="M835 5988 c-6 -20 -8 -20 -12 -5 -4 17 -23 24 -23 9 0 -14 45 -52 61
-52 12 0 12 2 0 9 -8 5 -12 19 -9 35 6 32 -7 35 -17 4z"></path>
<path d="M865 5970 c3 -5 10 -10 16 -10 5 0 9 5 9 10 0 6 -7 10 -16 10 -8 0
-12 -4 -9 -10z"></path>
<path d="M2627 8143 c-10 -9 -9 -23 1 -23 5 0 9 7 9 15 0 17 -1 18 -10 8z"></path>
<path d="M2676 8063 c-6 -14 -5 -15 5 -6 7 7 10 15 7 18 -3 3 -9 -2 -12 -12z"></path>
<path d="M2580 7880 c0 -5 5 -10 10 -10 6 0 10 -6 10 -14 0 -21 16 -28 17 -7
1 9 -7 23 -18 29 -11 7 -19 8 -19 2z"></path>
<path d="M2773 7833 c-18 -7 -16 -23 2 -23 8 0 15 7 15 15 0 8 -1 15 -2 14 -2
0 -9 -3 -15 -6z"></path>
<path d="M2678 7808 c-17 -17 -21 -61 -5 -51 4 3 6 11 3 19 -7 19 14 30 25 13
10 -16 11 -1 1 21 -6 14 -9 14 -24 -2z"></path>
<path d="M2725 7810 c3 -5 8 -10 11 -10 2 0 4 5 4 10 0 6 -5 10 -11 10 -5 0
-7 -4 -4 -10z"></path>
<path d="M2450 7770 c0 -5 5 -10 10 -10 6 0 10 5 10 10 0 6 -4 10 -10 10 -5 0
-10 -4 -10 -10z"></path>
<path d="M2565 7770 c-3 -6 1 -7 9 -4 18 7 21 14 7 14 -6 0 -13 -4 -16 -10z"></path>
<path d="M2975 7630 c-7 -12 23 -65 32 -56 3 3 -2 17 -11 31 -9 14 -12 25 -7
25 6 0 14 -6 18 -12 4 -7 17 -20 28 -28 17 -13 16 -11 -4 18 -23 32 -44 41
-56 22z"></path>
<path d="M2938 7594 c-8 -8 3 -44 13 -44 13 0 11 14 -3 28 -7 7 -9 12 -4 12 4
0 14 -7 23 -15 8 -9 18 -13 22 -10 3 4 -3 13 -13 21 -21 15 -30 17 -38 8z"></path>
<path d="M2650 7570 c0 -5 5 -10 11 -10 5 0 7 5 4 10 -3 6 -8 10 -11 10 -2 0
-4 -4 -4 -10z"></path>
<path d="M2656 7523 c-6 -14 -5 -15 5 -6 7 7 10 15 7 18 -3 3 -9 -2 -12 -12z"></path>
<path d="M2620 7499 c0 -5 5 -7 10 -4 6 3 10 8 10 11 0 2 -4 4 -10 4 -5 0 -10
-5 -10 -11z"></path>
<path d="M2505 7469 c-4 -6 -5 -12 -2 -15 2 -3 7 2 10 11 7 17 1 20 -8 4z"></path>
<path d="M3006 7383 c-6 -14 -5 -15 5 -6 7 7 10 15 7 18 -3 3 -9 -2 -12 -12z"></path>
<path d="M2971 7244 c0 -11 3 -14 6 -6 3 7 2 16 -1 19 -3 4 -6 -2 -5 -13z"></path>
<path d="M3007 7219 c6 -6 9 -19 6 -28 -4 -14 -3 -14 6 -1 16 22 13 40 -6 40
-13 0 -14 -3 -6 -11z"></path>
<path d="M3140 7204 c0 -3 6 -12 14 -19 10 -10 16 -11 25 -2 14 14 14 27 0 27
-5 0 -7 -4 -4 -10 3 -5 1 -10 -4 -10 -6 0 -11 5 -11 10 0 6 -4 10 -10 10 -5 0
-10 -3 -10 -6z"></path>
<path d="M2860 7165 c-8 -9 -8 -15 -2 -15 12 0 26 19 19 26 -2 2 -10 -2 -17
-11z"></path>
<path d="M3045 7170 c-3 -5 -1 -10 4 -10 6 0 11 5 11 10 0 6 -2 10 -4 10 -3 0
-8 -4 -11 -10z"></path>
<path d="M3026 7132 c-3 -5 1 -9 9 -9 8 0 12 4 9 9 -3 4 -7 8 -9 8 -2 0 -6 -4
-9 -8z"></path>
<path d="M1297 5969 c7 -7 15 -10 18 -7 3 3 -2 9 -12 12 -14 6 -15 5 -6 -5z"></path>
<path d="M1354 5971 c4 -5 0 -12 -6 -14 -8 -3 -6 -6 5 -6 9 -1 17 6 17 14 0 8
-5 15 -11 15 -5 0 -8 -4 -5 -9z"></path>
<path d="M1285 5940 c3 -5 8 -10 11 -10 2 0 4 5 4 10 0 6 -5 10 -11 10 -5 0
-7 -4 -4 -10z"></path>
<path d="M1321 5934 c0 -11 3 -14 6 -6 3 7 2 16 -1 19 -3 4 -6 -2 -5 -13z"></path>
<path d="M1353 5917 c5 -13 1 -17 -16 -17 -21 -1 -21 -1 -3 -11 14 -9 20 -8
26 1 4 7 13 9 19 6 16 -10 14 -29 -2 -23 -8 3 -19 2 -26 -3 -9 -5 -5 -9 13
-12 37 -7 43 20 9 51 -19 18 -25 20 -20 8z"></path>
<path d="M1715 5890 c3 -5 8 -10 11 -10 2 0 4 5 4 10 0 6 -5 10 -11 10 -5 0
-7 -4 -4 -10z"></path>
<path d="M1420 5879 c0 -5 5 -7 10 -4 6 3 10 8 10 11 0 2 -4 4 -10 4 -5 0 -10
-5 -10 -11z"></path>
<path d="M1550 5876 c0 -2 7 -9 15 -16 9 -7 15 -8 15 -2 0 5 -7 12 -15 16 -8
3 -15 4 -15 2z"></path>
<path d="M1640 5860 c0 -5 5 -10 11 -10 5 0 7 5 4 10 -3 6 -8 10 -11 10 -2 0
-4 -4 -4 -10z"></path>
<path d="M1710 5850 c0 -5 5 -10 10 -10 6 0 10 5 10 10 0 6 -4 10 -10 10 -5 0
-10 -4 -10 -10z"></path>
<path d="M1675 5840 c3 -5 8 -10 11 -10 2 0 4 5 4 10 0 6 -5 10 -11 10 -5 0
-7 -4 -4 -10z"></path>
<path d="M1570 5830 c0 -5 5 -10 11 -10 5 0 7 5 4 10 -3 6 -8 10 -11 10 -2 0
-4 -4 -4 -10z"></path>
<path d="M1612 5823 c-6 -3 -10 -9 -6 -14 3 -5 0 -9 -7 -9 -24 0 1 -13 32 -17
18 -2 28 1 24 7 -3 6 -13 10 -21 10 -8 0 -14 5 -14 11 0 6 8 8 19 4 11 -3 22
-2 24 2 6 10 -31 14 -51 6z"></path>
<path d="M1925 5769 c-4 -6 -5 -12 -2 -15 2 -3 7 2 10 11 7 17 1 20 -8 4z"></path>
<path d="M1956 5748 c3 -4 11 -5 19 -1 21 7 19 12 -4 10 -11 0 -18 -5 -15 -9z"></path>
<path d="M2215 5719 c-4 -6 -5 -12 -2 -15 2 -3 7 2 10 11 7 17 1 20 -8 4z"></path>
<path d="M2181 5694 c-1 -12 18 -31 34 -34 6 -1 9 -6 8 -11 -2 -5 4 -9 12 -9
13 0 13 3 3 20 -7 11 -20 20 -30 20 -9 0 -19 6 -21 13 -4 7 -6 8 -6 1z"></path>
<path d="M2150 5652 c0 -22 27 -49 38 -38 4 4 -1 12 -11 17 -9 6 -15 14 -12
19 3 5 1 11 -5 15 -5 3 -10 -3 -10 -13z"></path>
<path d="M2205 5610 c4 -6 11 -8 16 -5 14 9 11 15 -7 15 -8 0 -12 -5 -9 -10z"></path>
<path d="M3554 7169 c-3 -6 -2 -15 3 -20 5 -5 9 -1 10 11 2 22 -2 25 -13 9z"></path>
<path d="M3550 7105 c0 -9 6 -12 15 -9 8 4 12 10 9 15 -8 14 -24 10 -24 -6z"></path>
<path d="M3516 7087 c3 -10 9 -15 12 -12 3 3 0 11 -7 18 -10 9 -11 8 -5 -6z"></path>
<path d="M3445 6820 c-3 -5 -1 -10 4 -10 6 0 11 5 11 10 0 6 -2 10 -4 10 -3 0
-8 -4 -11 -10z"></path>
<path d="M3320 6804 c0 -14 3 -14 15 -4 8 7 15 14 15 16 0 2 -7 4 -15 4 -8 0
-15 -7 -15 -16z"></path>
<path d="M3636 6811 c-3 -4 -17 -7 -32 -5 -14 1 -23 -1 -19 -4 3 -4 14 -7 22
-7 9 0 18 -6 21 -14 3 -10 0 -12 -12 -8 -9 4 -14 3 -11 -2 3 -6 13 -9 23 -8
12 0 17 10 17 29 0 30 -1 33 -9 19z"></path>
<path d="M3530 6799 c0 -5 5 -7 10 -4 6 3 10 8 10 11 0 2 -4 4 -10 4 -5 0 -10
-5 -10 -11z"></path>
<path d="M3481 6784 c0 -11 3 -14 6 -6 3 7 2 16 -1 19 -3 4 -6 -2 -5 -13z"></path>
<path d="M3518 6768 c5 -5 16 -8 23 -6 8 3 3 7 -10 11 -17 4 -21 3 -13 -5z"></path>
<path d="M3503 6735 c0 -8 4 -12 9 -9 5 3 6 10 3 15 -9 13 -12 11 -12 -6z"></path>
<path d="M2550 5565 c0 -8 4 -15 10 -15 5 0 7 7 4 15 -4 8 -8 15 -10 15 -2 0
-4 -7 -4 -15z"></path>
<path d="M2520 5555 c0 -8 5 -15 10 -15 6 0 10 7 10 15 0 8 -4 15 -10 15 -5 0
-10 -7 -10 -15z"></path>
<path d="M2585 5560 c-3 -5 -1 -10 4 -10 6 0 11 5 11 10 0 6 -2 10 -4 10 -3 0
-8 -4 -11 -10z"></path>
<path d="M2620 5559 c0 -5 5 -7 10 -4 6 3 10 8 10 11 0 2 -4 4 -10 4 -5 0 -10
-5 -10 -11z"></path>
<path d="M2886 5542 c-3 -5 1 -9 9 -9 8 0 12 4 9 9 -3 4 -7 8 -9 8 -2 0 -6 -4
-9 -8z"></path>
<path d="M2796 5505 c4 -8 8 -15 10 -15 2 0 4 7 4 15 0 8 -4 15 -10 15 -5 0
-7 -7 -4 -15z"></path>
<path d="M2807 5436 c-4 -10 -5 -21 -2 -24 9 -9 17 6 13 25 -3 17 -4 17 -11
-1z"></path>
</g>
</svg>
